<svg width="2520" height="60" viewBox="0 0 2520 60" fill="none" xmlns="http://www.w3.org/2000/svg">
<path d="M2520 8.42258C2520 8.42258 2293.76 -9.54993 2160 8.42261C2026.24 26.3952 1941.59 5.05664e-05 1801 6.2857e-05C1660.41 7.51477e-05 1590.65 26.8455 1440 8.42268C1289.35 -10.0001 1080 8.42271 1080 8.42271L1080 60.0001L2520 60L2520 8.42258Z" fill="#2A2A2A"/>
<path d="M1440 8.42258C1440 8.42258 1213.76 -9.54993 1080 8.42261C946.242 26.3952 861.588 5.05664e-05 720.999 6.2857e-05C580.411 7.51477e-05 510.646 26.8455 360 8.42268C209.355 -10.0001 2.14191e-05 8.42271 2.14191e-05 8.42271L2.59282e-05 60.0001L1440 60L1440 8.42258Z" fill="#2A2A2A"/>
</svg>
