<svg width="4682" height="60" viewBox="0 0 4682 60" fill="none" xmlns="http://www.w3.org/2000/svg">
<g clip-path="url(#clip0_2_2190)">
<g clip-path="url(#clip1_2_2190)">
<path d="M2520 8.42252C2520 8.42252 2293.76 -9.54999 2160 8.42255C2026.24 26.3951 1941.59 -1.22906e-05 1801 0C1660.41 1.22907e-05 1590.65 26.8454 1440 8.42262C1289.35 -10.0002 1080 8.42265 1080 8.42265V60L2520 59.9999V8.42252Z" fill="#2A2A2A"/>
<path d="M1440 8.42252C1440 8.42252 1213.76 -9.54999 1080 8.42255C946.242 26.3951 861.588 -1.22906e-05 720.999 0C580.411 1.22907e-05 510.646 26.8454 360 8.42262C209.355 -10.0002 0 8.42265 0 8.42265L4.5091e-06 60L1440 59.9999V8.42252Z" fill="#2A2A2A"/>
</g>
</g>
<g clip-path="url(#clip2_2_2190)">
<g clip-path="url(#clip3_2_2190)">
<path d="M4682 8.42252C4682 8.42252 4455.76 -9.54999 4322 8.42255C4188.24 26.3951 4103.59 -1.22906e-05 3963 0C3822.41 1.22907e-05 3752.65 26.8454 3602 8.42262C3451.35 -10.0002 3242 8.42265 3242 8.42265V60L4682 59.9999V8.42252Z" fill="#2A2A2A"/>
<path d="M3602 8.42252C3602 8.42252 3375.76 -9.54999 3242 8.42255C3108.24 26.3951 3023.59 -1.22906e-05 2883 0C2742.41 1.22907e-05 2672.65 26.8454 2522 8.42262C2371.35 -10.0002 2162 8.42265 2162 8.42265L2162 60L3602 59.9999V8.42252Z" fill="#2A2A2A"/>
</g>
</g>
<defs>
<clipPath id="clip0_2_2190">
<rect width="2520" height="60" fill="white"/>
</clipPath>
<clipPath id="clip1_2_2190">
<rect width="2520" height="60" fill="white"/>
</clipPath>
<clipPath id="clip2_2_2190">
<rect width="2520" height="60" fill="white" transform="translate(2162)"/>
</clipPath>
<clipPath id="clip3_2_2190">
<rect width="2520" height="60" fill="white" transform="translate(2162)"/>
</clipPath>
</defs>
</svg>
